ISO-10303-21;
HEADER;
FILE_DESCRIPTION(('ViewDefinition [CoordinationView]'),'2;1');
FILE_NAME('','2026-07-24T11:18:56',(''),(''),'IfcOpenShell 0.8.5-1c5b825','IfcOpenShell 0.8.5-1c5b825','');
FILE_SCHEMA(('IFC4'));
ENDSEC;
DATA;
#1=IFCPERSON($,'KeyBiz','GAM Platform',$,$,$,$,$);
#2=IFCORGANIZATION($,'KeyBiz Srl \X2\2014\X0\ Metamorphosis',$,$,$);
#3=IFCPERSONANDORGANIZATION(#1,#2,$);
#4=IFCAPPLICATION(#2,'1.0','GAM Asset Manager \X2\2014\X0\ IFC Generator','GAM-IFC-GEN');
#5=IFCOWNERHISTORY(#3,#4,.READWRITE.,.ADDED.,$,$,$,1784891936);
#6=IFCSIUNIT(*,.LENGTHUNIT.,$,.METRE.);
#7=IFCSIUNIT(*,.AREAUNIT.,$,.SQUARE_METRE.);
#8=IFCSIUNIT(*,.VOLUMEUNIT.,$,.CUBIC_METRE.);
#9=IFCSIUNIT(*,.PLANEANGLEUNIT.,$,.RADIAN.);
#10=IFCUNITASSIGNMENT((#6,#7,#8,#9));
#11=IFCCARTESIANPOINT((0.,0.,0.));
#12=IFCAXIS2PLACEMENT3D(#11,$,$);
#13=IFCGEOMETRICREPRESENTATIONCONTEXT('Body','Model',3,1.0000000000000001E-05,#12,$);
#14=IFCGEOMETRICREPRESENTATIONSUBCONTEXT('FootPrint','Plan',*,*,*,*,#13,$,.PLAN_VIEW.,$);
#15=IFCPROJECT('1aClrr8m90Rg$A8sCB3gpZ',#5,'KeyBiz HQ \X2\2014\X0\ Sede Centrale Roma','Modello IFC generato da planimetrie SVG tramite GAM Platform',$,$,$,(#13),#10);
#16=IFCCARTESIANPOINT((0.,0.,0.));
#17=IFCAXIS2PLACEMENT3D(#16,$,$);
#18=IFCLOCALPLACEMENT($,#17);
#19=IFCSITE('3sBnvX$NP4HO2Vss4yOAK3',#5,'Roma \X2\2014\X0\ EUR','Via Cristoforo Colombo, Roma',$,#18,$,$,.ELEMENT.,(41,50,0,0),(12,28,0,0),20.,$,$);
#20=IFCRELAGGREGATES('3ohnktttbEJgwexbVdfpo5',#5,$,$,#15,(#19));
#21=IFCCARTESIANPOINT((0.,0.,0.));
#22=IFCAXIS2PLACEMENT3D(#21,$,$);
#23=IFCLOCALPLACEMENT(#18,#22);
#24=IFCBUILDING('16xFYkge1FTAQ34acDr$xr',#5,'KeyBiz HQ','Sede Centrale KeyBiz \X2\2014\X0\ 5 piani, ~1200 mq lordi',$,#23,$,$,.ELEMENT.,$,$,$);
#25=IFCRELAGGREGATES('1bAreLZyD8suzdtUA3VPIX',#5,$,$,#19,(#24));
#26=IFCCARTESIANPOINT((0.,0.,0.));
#27=IFCAXIS2PLACEMENT3D(#26,$,$);
#28=IFCLOCALPLACEMENT(#23,#27);
#29=IFCBUILDINGSTOREY('0DNsMOFUjBNeeg8es48jh$',#5,'Piano 4','Planimetria Piano 4 \X2\2014\X0\ KeyBiz HQ',$,#28,$,$,.ELEMENT.,0.);
#30=IFCCARTESIANPOINT((0.,0.,3.2000000000000002));
#31=IFCAXIS2PLACEMENT3D(#30,$,$);
#32=IFCLOCALPLACEMENT(#23,#31);
#33=IFCBUILDINGSTOREY('3RfPXywaX97vNf1rzx8Tx4',#5,'Piano 5','Planimetria Piano 5 \X2\2014\X0\ KeyBiz HQ',$,#32,$,$,.ELEMENT.,3.2000000000000002);
#34=IFCRELAGGREGATES('1Yxbk_PO5BCBFrEkoZqhMz',#5,$,$,#24,(#29,#33));
#35=IFCCARTESIANPOINT((1.4383561643835616,1.2666666666666666,0.));
#36=IFCAXIS2PLACEMENT3D(#35,$,$);
#37=IFCLOCALPLACEMENT(#28,#36);
#38=IFCCARTESIANPOINT((0.,0.));
#39=IFCCARTESIANPOINT((3.8356164383561642,0.));
#40=IFCCARTESIANPOINT((3.8356164383561642,5.7000000000000002));
#41=IFCCARTESIANPOINT((0.,5.7000000000000002));
#42=IFCCARTESIANPOINT((0.,0.));
#43=IFCPOLYLINE((#38,#39,#40,#41,#42));
#44=IFCARBITRARYCLOSEDPROFILEDEF(.AREA.,$,#43);
#45=IFCDIRECTION((0.,0.,1.));
#46=IFCCARTESIANPOINT((0.,0.,0.));
#47=IFCAXIS2PLACEMENT3D(#46,$,$);
#48=IFCEXTRUDEDAREASOLID(#44,#47,#45,3.2000000000000002);
#49=IFCSHAPEREPRESENTATION(#13,'Body','SweptSolid',(#48));
#50=IFCPRODUCTDEFINITIONSHAPE($,$,(#49));
#51=IFCSPACE('1lAgBpXPr10w7U0abNItbC',#5,'UFF. 1','12.0 mq \X2\2014\X0\ cap. 2 pers.',$,#37,#50,'Ufficio',$,.INTERNAL.,$);
#52=IFCPROPERTYSINGLEVALUE('BEMSZoneId',$,IFCLABEL('Z-P4-01'),$);
#53=IFCPROPERTYSINGLEVALUE('BEMSType',$,IFCLABEL('ufficio'),$);
#54=IFCPROPERTYSINGLEVALUE('AreaMq',$,IFCREAL(12.),$);
#55=IFCPROPERTYSINGLEVALUE('CapacitaPersone',$,IFCINTEGER(2),$);
#56=IFCPROPERTYSINGLEVALUE('SVGElementId',$,IFCLABEL('space-p4-uff-1'),$);
#57=IFCPROPERTYSINGLEVALUE('FloorId',$,IFCLABEL('P4'),$);
#58=IFCPROPERTYSET('1$fEA_07PFv8YBRvw7zFUF',#5,'KeyBiz_BEMS',$,(#52,#53,#54,#55,#56,#57));
#59=IFCRELDEFINESBYPROPERTIES('3AQTdWhJj3bA854JpvTwm9',#5,$,$,(#51),#58);
#60=IFCCARTESIANPOINT((5.2739726027397253,1.2666666666666666,0.));
#61=IFCAXIS2PLACEMENT3D(#60,$,$);
#62=IFCLOCALPLACEMENT(#28,#61);
#63=IFCCARTESIANPOINT((0.,0.));
#64=IFCCARTESIANPOINT((3.8356164383561642,0.));
#65=IFCCARTESIANPOINT((3.8356164383561642,5.7000000000000002));
#66=IFCCARTESIANPOINT((0.,5.7000000000000002));
#67=IFCCARTESIANPOINT((0.,0.));
#68=IFCPOLYLINE((#63,#64,#65,#66,#67));
#69=IFCARBITRARYCLOSEDPROFILEDEF(.AREA.,$,#68);
#70=IFCDIRECTION((0.,0.,1.));
#71=IFCCARTESIANPOINT((0.,0.,0.));
#72=IFCAXIS2PLACEMENT3D(#71,$,$);
#73=IFCEXTRUDEDAREASOLID(#69,#72,#70,3.2000000000000002);
#74=IFCSHAPEREPRESENTATION(#13,'Body','SweptSolid',(#73));
#75=IFCPRODUCTDEFINITIONSHAPE($,$,(#74));
#76=IFCSPACE('2w0QhztfT3TuJcITIzEF$m',#5,'UFF. 2','12.0 mq \X2\2014\X0\ cap. 2 pers.',$,#62,#75,'Ufficio',$,.INTERNAL.,$);
#77=IFCPROPERTYSINGLEVALUE('BEMSZoneId',$,IFCLABEL('Z-P4-02'),$);
#78=IFCPROPERTYSINGLEVALUE('BEMSType',$,IFCLABEL('ufficio'),$);
#79=IFCPROPERTYSINGLEVALUE('AreaMq',$,IFCREAL(12.),$);
#80=IFCPROPERTYSINGLEVALUE('CapacitaPersone',$,IFCINTEGER(2),$);
#81=IFCPROPERTYSINGLEVALUE('SVGElementId',$,IFCLABEL('space-p4-uff-2'),$);
#82=IFCPROPERTYSINGLEVALUE('FloorId',$,IFCLABEL('P4'),$);
#83=IFCPROPERTYSET('2qkG6Bter98ApRA593lgQ4',#5,'KeyBiz_BEMS',$,(#77,#78,#79,#80,#81,#82));
#84=IFCRELDEFINESBYPROPERTIES('1BU$qbDAb1nv9HxDHUNAna',#5,$,$,(#76),#83);
#85=IFCCARTESIANPOINT((9.1095890410958891,1.2666666666666666,0.));
#86=IFCAXIS2PLACEMENT3D(#85,$,$);
#87=IFCLOCALPLACEMENT(#28,#86);
#88=IFCCARTESIANPOINT((0.,0.));
#89=IFCCARTESIANPOINT((3.8356164383561642,0.));
#90=IFCCARTESIANPOINT((3.8356164383561642,5.7000000000000002));
#91=IFCCARTESIANPOINT((0.,5.7000000000000002));
#92=IFCCARTESIANPOINT((0.,0.));
#93=IFCPOLYLINE((#88,#89,#90,#91,#92));
#94=IFCARBITRARYCLOSEDPROFILEDEF(.AREA.,$,#93);
#95=IFCDIRECTION((0.,0.,1.));
#96=IFCCARTESIANPOINT((0.,0.,0.));
#97=IFCAXIS2PLACEMENT3D(#96,$,$);
#98=IFCEXTRUDEDAREASOLID(#94,#97,#95,3.2000000000000002);
#99=IFCSHAPEREPRESENTATION(#13,'Body','SweptSolid',(#98));
#100=IFCPRODUCTDEFINITIONSHAPE($,$,(#99));
#101=IFCSPACE('162mI0ff93JQvBLXTW2wwg',#5,'UFF. 3','12.0 mq \X2\2014\X0\ cap. 2 pers.',$,#87,#100,'Ufficio',$,.INTERNAL.,$);
#102=IFCPROPERTYSINGLEVALUE('BEMSZoneId',$,IFCLABEL('Z-P4-03'),$);
#103=IFCPROPERTYSINGLEVALUE('BEMSType',$,IFCLABEL('ufficio'),$);
#104=IFCPROPERTYSINGLEVALUE('AreaMq',$,IFCREAL(12.),$);
#105=IFCPROPERTYSINGLEVALUE('CapacitaPersone',$,IFCINTEGER(2),$);
#106=IFCPROPERTYSINGLEVALUE('SVGElementId',$,IFCLABEL('space-p4-uff-3'),$);
#107=IFCPROPERTYSINGLEVALUE('FloorId',$,IFCLABEL('P4'),$);
#108=IFCPROPERTYSET('0FEUDR2n59FgtKUdhQnjGZ',#5,'KeyBiz_BEMS',$,(#102,#103,#104,#105,#106,#107));
#109=IFCRELDEFINESBYPROPERTIES('1QUw9I67jFhPNGjSu$$mbu',#5,$,$,(#101),#108);
#110=IFCCARTESIANPOINT((12.945205479452055,1.2666666666666666,0.));
#111=IFCAXIS2PLACEMENT3D(#110,$,$);
#112=IFCLOCALPLACEMENT(#28,#111);
#113=IFCCARTESIANPOINT((0.,0.));
#114=IFCCARTESIANPOINT((3.8356164383561642,0.));
#115=IFCCARTESIANPOINT((3.8356164383561642,5.7000000000000002));
#116=IFCCARTESIANPOINT((0.,5.7000000000000002));
#117=IFCCARTESIANPOINT((0.,0.));
#118=IFCPOLYLINE((#113,#114,#115,#116,#117));
#119=IFCARBITRARYCLOSEDPROFILEDEF(.AREA.,$,#118);
#120=IFCDIRECTION((0.,0.,1.));
#121=IFCCARTESIANPOINT((0.,0.,0.));
#122=IFCAXIS2PLACEMENT3D(#121,$,$);
#123=IFCEXTRUDEDAREASOLID(#119,#122,#120,3.2000000000000002);
#124=IFCSHAPEREPRESENTATION(#13,'Body','SweptSolid',(#123));
#125=IFCPRODUCTDEFINITIONSHAPE($,$,(#124));
#126=IFCSPACE('0v2zXY$jfF0POGwtbRIJ4W',#5,'UFF. 4','12.0 mq \X2\2014\X0\ cap. 2 pers.',$,#112,#125,'Ufficio',$,.INTERNAL.,$);
#127=IFCPROPERTYSINGLEVALUE('BEMSZoneId',$,IFCLABEL('Z-P4-04'),$);
#128=IFCPROPERTYSINGLEVALUE('BEMSType',$,IFCLABEL('ufficio'),$);
#129=IFCPROPERTYSINGLEVALUE('AreaMq',$,IFCREAL(12.),$);
#130=IFCPROPERTYSINGLEVALUE('CapacitaPersone',$,IFCINTEGER(2),$);
#131=IFCPROPERTYSINGLEVALUE('SVGElementId',$,IFCLABEL('space-p4-uff-4'),$);
#132=IFCPROPERTYSINGLEVALUE('FloorId',$,IFCLABEL('P4'),$);
#133=IFCPROPERTYSET('3pUeZGmmn8LvYOf$RtOlPw',#5,'KeyBiz_BEMS',$,(#127,#128,#129,#130,#131,#132));
#134=IFCRELDEFINESBYPROPERTIES('3SLXqof2DA8eoTkBzrWRDh',#5,$,$,(#126),#133);
#135=IFCCARTESIANPOINT((16.780821917808218,1.2666666666666666,0.));
#136=IFCAXIS2PLACEMENT3D(#135,$,$);
#137=IFCLOCALPLACEMENT(#28,#136);
#138=IFCCARTESIANPOINT((0.,0.));
#139=IFCCARTESIANPOINT((4.7945205479452051,0.));
#140=IFCCARTESIANPOINT((4.7945205479452051,5.7000000000000002));
#141=IFCCARTESIANPOINT((0.,5.7000000000000002));
#142=IFCCARTESIANPOINT((0.,0.));
#143=IFCPOLYLINE((#138,#139,#140,#141,#142));
#144=IFCARBITRARYCLOSEDPROFILEDEF(.AREA.,$,#143);
#145=IFCDIRECTION((0.,0.,1.));
#146=IFCCARTESIANPOINT((0.,0.,0.));
#147=IFCAXIS2PLACEMENT3D(#146,$,$);
#148=IFCEXTRUDEDAREASOLID(#144,#147,#145,3.2000000000000002);
#149=IFCSHAPEREPRESENTATION(#13,'Body','SweptSolid',(#148));
#150=IFCPRODUCTDEFINITIONSHAPE($,$,(#149));
#151=IFCSPACE('0e6hqBWKDDMguL5zk7eCO0',#5,'VANO SCALE','18.0 mq \X2\2014\X0\ cap. 0 pers.',$,#137,#150,'Vano Scale',$,.INTERNAL.,$);
#152=IFCPROPERTYSINGLEVALUE('BEMSZoneId',$,IFCLABEL('Z-P4-05'),$);
#153=IFCPROPERTYSINGLEVALUE('BEMSType',$,IFCLABEL('vano_scale'),$);
#154=IFCPROPERTYSINGLEVALUE('AreaMq',$,IFCREAL(18.),$);
#155=IFCPROPERTYSINGLEVALUE('CapacitaPersone',$,IFCINTEGER(0),$);
#156=IFCPROPERTYSINGLEVALUE('SVGElementId',$,IFCLABEL('space-p4-vano-scale'),$);
#157=IFCPROPERTYSINGLEVALUE('FloorId',$,IFCLABEL('P4'),$);
#158=IFCPROPERTYSET('2SEjFcMUn95RM5AnfWXv0q',#5,'KeyBiz_BEMS',$,(#152,#153,#154,#155,#156,#157));
#159=IFCRELDEFINESBYPROPERTIES('3LKzMrBJP1NxC2daxPBv$3',#5,$,$,(#151),#158);
#160=IFCCARTESIANPOINT((23.732876712328764,1.2666666666666666,0.));
#161=IFCAXIS2PLACEMENT3D(#160,$,$);
#162=IFCLOCALPLACEMENT(#28,#161);
#163=IFCCARTESIANPOINT((0.,0.));
#164=IFCCARTESIANPOINT((4.0753424657534243,0.));
#165=IFCCARTESIANPOINT((4.0753424657534243,5.7000000000000002));
#166=IFCCARTESIANPOINT((0.,5.7000000000000002));
#167=IFCCARTESIANPOINT((0.,0.));
#168=IFCPOLYLINE((#163,#164,#165,#166,#167));
#169=IFCARBITRARYCLOSEDPROFILEDEF(.AREA.,$,#168);
#170=IFCDIRECTION((0.,0.,1.));
#171=IFCCARTESIANPOINT((0.,0.,0.));
#172=IFCAXIS2PLACEMENT3D(#171,$,$);
#173=IFCEXTRUDEDAREASOLID(#169,#172,#170,3.2000000000000002);
#174=IFCSHAPEREPRESENTATION(#13,'Body','SweptSolid',(#173));
#175=IFCPRODUCTDEFINITIONSHAPE($,$,(#174));
#176=IFCSPACE('1TbpufsTjDtAAG6wf90gpM',#5,'DIR. GENERALE','20.0 mq \X2\2014\X0\ cap. 1 pers.',$,#162,#175,'Ufficio Direzionale',$,.INTERNAL.,$);
#177=IFCPROPERTYSINGLEVALUE('BEMSZoneId',$,IFCLABEL('Z-P4-06'),$);
#178=IFCPROPERTYSINGLEVALUE('BEMSType',$,IFCLABEL('ufficio_direzionale'),$);
#179=IFCPROPERTYSINGLEVALUE('AreaMq',$,IFCREAL(20.),$);
#180=IFCPROPERTYSINGLEVALUE('CapacitaPersone',$,IFCINTEGER(1),$);
#181=IFCPROPERTYSINGLEVALUE('SVGElementId',$,IFCLABEL('space-p4-dir-generale'),$);
#182=IFCPROPERTYSINGLEVALUE('FloorId',$,IFCLABEL('P4'),$);
#183=IFCPROPERTYSET('0Z4KFlLGbA4x$MH1AybQKz',#5,'KeyBiz_BEMS',$,(#177,#178,#179,#180,#181,#182));
#184=IFCRELDEFINESBYPROPERTIES('36MtjVOljB9Pi6NOR1lIQo',#5,$,$,(#176),#183);
#185=IFCCARTESIANPOINT((27.80821917808219,1.2666666666666666,0.));
#186=IFCAXIS2PLACEMENT3D(#185,$,$);
#187=IFCLOCALPLACEMENT(#28,#186);
#188=IFCCARTESIANPOINT((0.,0.));
#189=IFCCARTESIANPOINT((5.7534246575342465,0.));
#190=IFCCARTESIANPOINT((5.7534246575342465,5.7000000000000002));
#191=IFCCARTESIANPOINT((0.,5.7000000000000002));
#192=IFCCARTESIANPOINT((0.,0.));
#193=IFCPOLYLINE((#188,#189,#190,#191,#192));
#194=IFCARBITRARYCLOSEDPROFILEDEF(.AREA.,$,#193);
#195=IFCDIRECTION((0.,0.,1.));
#196=IFCCARTESIANPOINT((0.,0.,0.));
#197=IFCAXIS2PLACEMENT3D(#196,$,$);
#198=IFCEXTRUDEDAREASOLID(#194,#197,#195,3.2000000000000002);
#199=IFCSHAPEREPRESENTATION(#13,'Body','SweptSolid',(#198));
#200=IFCPRODUCTDEFINITIONSHAPE($,$,(#199));
#201=IFCSPACE('1cXkNxkRr0JvTImiemMV4w',#5,'SALA RIUNIONI','30.0 mq \X2\2014\X0\ cap. 10 pers.',$,#187,#200,'Sala Riunioni',$,.INTERNAL.,$);
#202=IFCPROPERTYSINGLEVALUE('BEMSZoneId',$,IFCLABEL('Z-P4-07'),$);
#203=IFCPROPERTYSINGLEVALUE('BEMSType',$,IFCLABEL('sala_riunioni'),$);
#204=IFCPROPERTYSINGLEVALUE('AreaMq',$,IFCREAL(30.),$);
#205=IFCPROPERTYSINGLEVALUE('CapacitaPersone',$,IFCINTEGER(10),$);
#206=IFCPROPERTYSINGLEVALUE('SVGElementId',$,IFCLABEL('space-p4-sala-riunioni'),$);
#207=IFCPROPERTYSINGLEVALUE('FloorId',$,IFCLABEL('P4'),$);
#208=IFCPROPERTYSET('3HsCvLHxfCIALRRKDSrdWV',#5,'KeyBiz_BEMS',$,(#202,#203,#204,#205,#206,#207));
#209=IFCRELDEFINESBYPROPERTIES('3gy3FKplLAzgiRMPN7VIgB',#5,$,$,(#201),#208);
#210=IFCCARTESIANPOINT((1.4383561643835616,6.9666666666666668,0.));
#211=IFCAXIS2PLACEMENT3D(#210,$,$);
#212=IFCLOCALPLACEMENT(#28,#211);
#213=IFCCARTESIANPOINT((0.,0.));
#214=IFCCARTESIANPOINT((32.123287671232873,0.));
#215=IFCCARTESIANPOINT((32.123287671232873,1.2666666666666666));
#216=IFCCARTESIANPOINT((0.,1.2666666666666666));
#217=IFCCARTESIANPOINT((0.,0.));
#218=IFCPOLYLINE((#213,#214,#215,#216,#217));
#219=IFCARBITRARYCLOSEDPROFILEDEF(.AREA.,$,#218);
#220=IFCDIRECTION((0.,0.,1.));
#221=IFCCARTESIANPOINT((0.,0.,0.));
#222=IFCAXIS2PLACEMENT3D(#221,$,$);
#223=IFCEXTRUDEDAREASOLID(#219,#222,#220,3.2000000000000002);
#224=IFCSHAPEREPRESENTATION(#13,'Body','SweptSolid',(#223));
#225=IFCPRODUCTDEFINITIONSHAPE($,$,(#224));
#226=IFCSPACE('033tEogN54RukxjvksPL8N',#5,'CORRIDOIO','30.0 mq \X2\2014\X0\ cap. 0 pers.',$,#212,#225,'Corridoio',$,.INTERNAL.,$);
#227=IFCPROPERTYSINGLEVALUE('BEMSZoneId',$,IFCLABEL('Z-P4-08'),$);
#228=IFCPROPERTYSINGLEVALUE('BEMSType',$,IFCLABEL('corridoio'),$);
#229=IFCPROPERTYSINGLEVALUE('AreaMq',$,IFCREAL(30.),$);
#230=IFCPROPERTYSINGLEVALUE('CapacitaPersone',$,IFCINTEGER(0),$);
#231=IFCPROPERTYSINGLEVALUE('SVGElementId',$,IFCLABEL('space-p4-corridoio'),$);
#232=IFCPROPERTYSINGLEVALUE('FloorId',$,IFCLABEL('P4'),$);
#233=IFCPROPERTYSET('2YkVvSlDH2KeIqpHXkmvAA',#5,'KeyBiz_BEMS',$,(#227,#228,#229,#230,#231,#232));
#234=IFCRELDEFINESBYPROPERTIES('3wA682YQ9Fifukt8c3$VXc',#5,$,$,(#226),#233);
#235=IFCCARTESIANPOINT((1.4383561643835616,8.2333333333333343,0.));
#236=IFCAXIS2PLACEMENT3D(#235,$,$);
#237=IFCLOCALPLACEMENT(#28,#236);
#238=IFCCARTESIANPOINT((0.,0.));
#239=IFCCARTESIANPOINT((8.8698630136986303,0.));
#240=IFCCARTESIANPOINT((8.8698630136986303,9.0777777777777775));
#241=IFCCARTESIANPOINT((0.,9.0777777777777775));
#242=IFCCARTESIANPOINT((0.,0.));
#243=IFCPOLYLINE((#238,#239,#240,#241,#242));
#244=IFCARBITRARYCLOSEDPROFILEDEF(.AREA.,$,#243);
#245=IFCDIRECTION((0.,0.,1.));
#246=IFCCARTESIANPOINT((0.,0.,0.));
#247=IFCAXIS2PLACEMENT3D(#246,$,$);
#248=IFCEXTRUDEDAREASOLID(#244,#247,#245,3.2000000000000002);
#249=IFCSHAPEREPRESENTATION(#13,'Body','SweptSolid',(#248));
#250=IFCPRODUCTDEFINITIONSHAPE($,$,(#249));
#251=IFCSPACE('296p_0LezCmfdNHE6PWseH',#5,'OPEN SPACE A','50.0 mq \X2\2014\X0\ cap. 10 pers.',$,#237,#250,'Open Space',$,.INTERNAL.,$);
#252=IFCPROPERTYSINGLEVALUE('BEMSZoneId',$,IFCLABEL('Z-P4-09'),$);
#253=IFCPROPERTYSINGLEVALUE('BEMSType',$,IFCLABEL('open_space'),$);
#254=IFCPROPERTYSINGLEVALUE('AreaMq',$,IFCREAL(50.),$);
#255=IFCPROPERTYSINGLEVALUE('CapacitaPersone',$,IFCINTEGER(10),$);
#256=IFCPROPERTYSINGLEVALUE('SVGElementId',$,IFCLABEL('space-p4-open-space-a'),$);
#257=IFCPROPERTYSINGLEVALUE('FloorId',$,IFCLABEL('P4'),$);
#258=IFCPROPERTYSET('0J99ItlsDAef93KrNlBHuS',#5,'KeyBiz_BEMS',$,(#252,#253,#254,#255,#256,#257));
#259=IFCRELDEFINESBYPROPERTIES('2dLJlGDX5FHxGEkJJPt$w4',#5,$,$,(#251),#258);
#260=IFCCARTESIANPOINT((10.308219178082192,8.2333333333333343,0.));
#261=IFCAXIS2PLACEMENT3D(#260,$,$);
#262=IFCLOCALPLACEMENT(#28,#261);
#263=IFCCARTESIANPOINT((0.,0.));
#264=IFCCARTESIANPOINT((6.4726027397260273,0.));
#265=IFCCARTESIANPOINT((6.4726027397260273,9.0777777777777775));
#266=IFCCARTESIANPOINT((0.,9.0777777777777775));
#267=IFCCARTESIANPOINT((0.,0.));
#268=IFCPOLYLINE((#263,#264,#265,#266,#267));
#269=IFCARBITRARYCLOSEDPROFILEDEF(.AREA.,$,#268);
#270=IFCDIRECTION((0.,0.,1.));
#271=IFCCARTESIANPOINT((0.,0.,0.));
#272=IFCAXIS2PLACEMENT3D(#271,$,$);
#273=IFCEXTRUDEDAREASOLID(#269,#272,#270,3.2000000000000002);
#274=IFCSHAPEREPRESENTATION(#13,'Body','SweptSolid',(#273));
#275=IFCPRODUCTDEFINITIONSHAPE($,$,(#274));
#276=IFCSPACE('1Ywk2cMRH0VxbJ426dThye',#5,'LAB IoT','30.0 mq \X2\2014\X0\ cap. 3 pers.',$,#262,#275,'Laboratorio',$,.INTERNAL.,$);
#277=IFCPROPERTYSINGLEVALUE('BEMSZoneId',$,IFCLABEL('Z-P4-10'),$);
#278=IFCPROPERTYSINGLEVALUE('BEMSType',$,IFCLABEL('laboratorio'),$);
#279=IFCPROPERTYSINGLEVALUE('AreaMq',$,IFCREAL(30.),$);
#280=IFCPROPERTYSINGLEVALUE('CapacitaPersone',$,IFCINTEGER(3),$);
#281=IFCPROPERTYSINGLEVALUE('SVGElementId',$,IFCLABEL('space-p4-lab-iot'),$);
#282=IFCPROPERTYSINGLEVALUE('FloorId',$,IFCLABEL('P4'),$);
#283=IFCPROPERTYSET('17WcwIXpHDEwEfPZEZAvg3',#5,'KeyBiz_BEMS',$,(#277,#278,#279,#280,#281,#282));
#284=IFCRELDEFINESBYPROPERTIES('2PH3uahXD4lx5ZIaujVPVv',#5,$,$,(#276),#283);
#285=IFCCARTESIANPOINT((16.780821917808218,8.2333333333333343,0.));
#286=IFCAXIS2PLACEMENT3D(#285,$,$);
#287=IFCLOCALPLACEMENT(#28,#286);
#288=IFCCARTESIANPOINT((0.,0.));
#289=IFCCARTESIANPOINT((8.6301369863013697,0.));
#290=IFCCARTESIANPOINT((8.6301369863013697,9.0777777777777775));
#291=IFCCARTESIANPOINT((0.,9.0777777777777775));
#292=IFCCARTESIANPOINT((0.,0.));
#293=IFCPOLYLINE((#288,#289,#290,#291,#292));
#294=IFCARBITRARYCLOSEDPROFILEDEF(.AREA.,$,#293);
#295=IFCDIRECTION((0.,0.,1.));
#296=IFCCARTESIANPOINT((0.,0.,0.));
#297=IFCAXIS2PLACEMENT3D(#296,$,$);
#298=IFCEXTRUDEDAREASOLID(#294,#297,#295,3.2000000000000002);
#299=IFCSHAPEREPRESENTATION(#13,'Body','SweptSolid',(#298));
#300=IFCPRODUCTDEFINITIONSHAPE($,$,(#299));
#301=IFCSPACE('21njuSMg59IfHvXihWXr00',#5,'OPEN SPACE B','50.0 mq \X2\2014\X0\ cap. 10 pers.',$,#287,#300,'Open Space',$,.INTERNAL.,$);
#302=IFCPROPERTYSINGLEVALUE('BEMSZoneId',$,IFCLABEL('Z-P4-11'),$);
#303=IFCPROPERTYSINGLEVALUE('BEMSType',$,IFCLABEL('open_space'),$);
#304=IFCPROPERTYSINGLEVALUE('AreaMq',$,IFCREAL(50.),$);
#305=IFCPROPERTYSINGLEVALUE('CapacitaPersone',$,IFCINTEGER(10),$);
#306=IFCPROPERTYSINGLEVALUE('SVGElementId',$,IFCLABEL('space-p4-open-space-b'),$);
#307=IFCPROPERTYSINGLEVALUE('FloorId',$,IFCLABEL('P4'),$);
#308=IFCPROPERTYSET('2kooKthrnE7RQiHY8fVTT2',#5,'KeyBiz_BEMS',$,(#302,#303,#304,#305,#306,#307));
#309=IFCRELDEFINESBYPROPERTIES('19YZE_yrn4Lvoduywxf1NM',#5,$,$,(#301),#308);
#310=IFCCARTESIANPOINT((26.609589041095887,8.2333333333333343,0.));
#311=IFCAXIS2PLACEMENT3D(#310,$,$);
#312=IFCLOCALPLACEMENT(#28,#311);
#313=IFCCARTESIANPOINT((0.,0.));
#314=IFCCARTESIANPOINT((6.9520547945205475,0.));
#315=IFCCARTESIANPOINT((6.9520547945205475,3.8000000000000003));
#316=IFCCARTESIANPOINT((0.,3.8000000000000003));
#317=IFCCARTESIANPOINT((0.,0.));
#318=IFCPOLYLINE((#313,#314,#315,#316,#317));
#319=IFCARBITRARYCLOSEDPROFILEDEF(.AREA.,$,#318);
#320=IFCDIRECTION((0.,0.,1.));
#321=IFCCARTESIANPOINT((0.,0.,0.));
#322=IFCAXIS2PLACEMENT3D(#321,$,$);
#323=IFCEXTRUDEDAREASOLID(#319,#322,#320,3.2000000000000002);
#324=IFCSHAPEREPRESENTATION(#13,'Body','SweptSolid',(#323));
#325=IFCPRODUCTDEFINITIONSHAPE($,$,(#324));
#326=IFCSPACE('0a02Ej6xf01fNhslHADANn',#5,'SALA BREAK','20.0 mq \X2\2014\X0\ cap. 8 pers.',$,#312,#325,'Sala Break',$,.INTERNAL.,$);
#327=IFCPROPERTYSINGLEVALUE('BEMSZoneId',$,IFCLABEL('Z-P4-12'),$);
#328=IFCPROPERTYSINGLEVALUE('BEMSType',$,IFCLABEL('sala_break'),$);
#329=IFCPROPERTYSINGLEVALUE('AreaMq',$,IFCREAL(20.),$);
#330=IFCPROPERTYSINGLEVALUE('CapacitaPersone',$,IFCINTEGER(8),$);
#331=IFCPROPERTYSINGLEVALUE('SVGElementId',$,IFCLABEL('space-p4-sala-break'),$);
#332=IFCPROPERTYSINGLEVALUE('FloorId',$,IFCLABEL('P4'),$);
#333=IFCPROPERTYSET('2JYoB$vf18wAAQX0epttVn',#5,'KeyBiz_BEMS',$,(#327,#328,#329,#330,#331,#332));
#334=IFCRELDEFINESBYPROPERTIES('1RlhdC1QXBgBT5xHH8aAtT',#5,$,$,(#326),#333);
#335=IFCCARTESIANPOINT((26.609589041095887,12.772222222222222,0.));
#336=IFCAXIS2PLACEMENT3D(#335,$,$);
#337=IFCLOCALPLACEMENT(#28,#336);
#338=IFCCARTESIANPOINT((0.,0.));
#339=IFCCARTESIANPOINT((2.3253424657534247,0.));
#340=IFCCARTESIANPOINT((2.3253424657534247,4.5388888888888888));
#341=IFCCARTESIANPOINT((0.,4.5388888888888888));
#342=IFCCARTESIANPOINT((0.,0.));
#343=IFCPOLYLINE((#338,#339,#340,#341,#342));
#344=IFCARBITRARYCLOSEDPROFILEDEF(.AREA.,$,#343);
#345=IFCDIRECTION((0.,0.,1.));
#346=IFCCARTESIANPOINT((0.,0.,0.));
#347=IFCAXIS2PLACEMENT3D(#346,$,$);
#348=IFCEXTRUDEDAREASOLID(#344,#347,#345,3.2000000000000002);
#349=IFCSHAPEREPRESENTATION(#13,'Body','SweptSolid',(#348));
#350=IFCPRODUCTDEFINITIONSHAPE($,$,(#349));
#351=IFCSPACE('3dSk4B4$PDHwNBjT67B5Yb',#5,'BAGNI M (1)','8.0 mq \X2\2014\X0\ cap. 0 pers.',$,#337,#350,'Bagni',$,.INTERNAL.,$);
#352=IFCPROPERTYSINGLEVALUE('BEMSZoneId',$,IFCLABEL('Z-P4-13'),$);
#353=IFCPROPERTYSINGLEVALUE('BEMSType',$,IFCLABEL('bagni'),$);
#354=IFCPROPERTYSINGLEVALUE('AreaMq',$,IFCREAL(8.),$);
#355=IFCPROPERTYSINGLEVALUE('CapacitaPersone',$,IFCINTEGER(0),$);
#356=IFCPROPERTYSINGLEVALUE('SVGElementId',$,IFCLABEL('space-p4-bagni-m-1'),$);
#357=IFCPROPERTYSINGLEVALUE('FloorId',$,IFCLABEL('P4'),$);
#358=IFCPROPERTYSET('1A11o2x7HEmwEAqFTTj$jO',#5,'KeyBiz_BEMS',$,(#352,#353,#354,#355,#356,#357));
#359=IFCRELDEFINESBYPROPERTIES('3RYdwL1SjADwxO$ShFiOcK',#5,$,$,(#351),#358);
#360=IFCCARTESIANPOINT((28.934931506849313,12.772222222222222,0.));
#361=IFCAXIS2PLACEMENT3D(#360,$,$);
#362=IFCLOCALPLACEMENT(#28,#361);
#363=IFCCARTESIANPOINT((0.,0.));
#364=IFCCARTESIANPOINT((2.3972602739726026,0.));
#365=IFCCARTESIANPOINT((2.3972602739726026,4.5388888888888888));
#366=IFCCARTESIANPOINT((0.,4.5388888888888888));
#367=IFCCARTESIANPOINT((0.,0.));
#368=IFCPOLYLINE((#363,#364,#365,#366,#367));
#369=IFCARBITRARYCLOSEDPROFILEDEF(.AREA.,$,#368);
#370=IFCDIRECTION((0.,0.,1.));
#371=IFCCARTESIANPOINT((0.,0.,0.));
#372=IFCAXIS2PLACEMENT3D(#371,$,$);
#373=IFCEXTRUDEDAREASOLID(#369,#372,#370,3.2000000000000002);
#374=IFCSHAPEREPRESENTATION(#13,'Body','SweptSolid',(#373));
#375=IFCPRODUCTDEFINITIONSHAPE($,$,(#374));
#376=IFCSPACE('028GUlycPDpuHH4eNsfJUu',#5,'BAGNI M (2)','8.0 mq \X2\2014\X0\ cap. 0 pers.',$,#362,#375,'Bagni',$,.INTERNAL.,$);
#377=IFCPROPERTYSINGLEVALUE('BEMSZoneId',$,IFCLABEL('Z-P4-14'),$);
#378=IFCPROPERTYSINGLEVALUE('BEMSType',$,IFCLABEL('bagni'),$);
#379=IFCPROPERTYSINGLEVALUE('AreaMq',$,IFCREAL(8.),$);
#380=IFCPROPERTYSINGLEVALUE('CapacitaPersone',$,IFCINTEGER(0),$);
#381=IFCPROPERTYSINGLEVALUE('SVGElementId',$,IFCLABEL('space-p4-bagni-m-2'),$);
#382=IFCPROPERTYSINGLEVALUE('FloorId',$,IFCLABEL('P4'),$);
#383=IFCPROPERTYSET('12aJbjOrTDTh1XkaIRSqzs',#5,'KeyBiz_BEMS',$,(#377,#378,#379,#380,#381,#382));
#384=IFCRELDEFINESBYPROPERTIES('12aejN8sLA8wHxZ_Tv_0oY',#5,$,$,(#376),#383);
#385=IFCCARTESIANPOINT((31.332191780821915,12.772222222222222,0.));
#386=IFCAXIS2PLACEMENT3D(#385,$,$);
#387=IFCLOCALPLACEMENT(#28,#386);
#388=IFCCARTESIANPOINT((0.,0.));
#389=IFCCARTESIANPOINT((2.2294520547945202,0.));
#390=IFCCARTESIANPOINT((2.2294520547945202,4.5388888888888888));
#391=IFCCARTESIANPOINT((0.,4.5388888888888888));
#392=IFCCARTESIANPOINT((0.,0.));
#393=IFCPOLYLINE((#388,#389,#390,#391,#392));
#394=IFCARBITRARYCLOSEDPROFILEDEF(.AREA.,$,#393);
#395=IFCDIRECTION((0.,0.,1.));
#396=IFCCARTESIANPOINT((0.,0.,0.));
#397=IFCAXIS2PLACEMENT3D(#396,$,$);
#398=IFCEXTRUDEDAREASOLID(#394,#397,#395,3.2000000000000002);
#399=IFCSHAPEREPRESENTATION(#13,'Body','SweptSolid',(#398));
#400=IFCPRODUCTDEFINITIONSHAPE($,$,(#399));
#401=IFCSPACE('1VORz$n158XBy2AmD0LFxa',#5,'BAGNI F','8.0 mq \X2\2014\X0\ cap. 0 pers.',$,#387,#400,'Bagni',$,.INTERNAL.,$);
#402=IFCPROPERTYSINGLEVALUE('BEMSZoneId',$,IFCLABEL('Z-P4-15'),$);
#403=IFCPROPERTYSINGLEVALUE('BEMSType',$,IFCLABEL('bagni'),$);
#404=IFCPROPERTYSINGLEVALUE('AreaMq',$,IFCREAL(8.),$);
#405=IFCPROPERTYSINGLEVALUE('CapacitaPersone',$,IFCINTEGER(0),$);
#406=IFCPROPERTYSINGLEVALUE('SVGElementId',$,IFCLABEL('space-p4-bagni-f'),$);
#407=IFCPROPERTYSINGLEVALUE('FloorId',$,IFCLABEL('P4'),$);
#408=IFCPROPERTYSET('28xIrAvfv0kR2U0zupoxuu',#5,'KeyBiz_BEMS',$,(#402,#403,#404,#405,#406,#407));
#409=IFCRELDEFINESBYPROPERTIES('0V8IBqoRr6NfBwPLdPClvh',#5,$,$,(#401),#408);
#410=IFCCARTESIANPOINT((0.88888888888888895,0.9375,0.));
#411=IFCAXIS2PLACEMENT3D(#410,$,$);
#412=IFCLOCALPLACEMENT(#32,#411);
#413=IFCCARTESIANPOINT((0.,0.));
#414=IFCCARTESIANPOINT((5.3333333333333339,0.));
#415=IFCCARTESIANPOINT((5.3333333333333339,5.1041666666666661));
#416=IFCCARTESIANPOINT((0.,5.1041666666666661));
#417=IFCCARTESIANPOINT((0.,0.));
#418=IFCPOLYLINE((#413,#414,#415,#416,#417));
#419=IFCARBITRARYCLOSEDPROFILEDEF(.AREA.,$,#418);
#420=IFCDIRECTION((0.,0.,1.));
#421=IFCCARTESIANPOINT((0.,0.,0.));
#422=IFCAXIS2PLACEMENT3D(#421,$,$);
#423=IFCEXTRUDEDAREASOLID(#419,#422,#420,3.2000000000000002);
#424=IFCSHAPEREPRESENTATION(#13,'Body','SweptSolid',(#423));
#425=IFCPRODUCTDEFINITIONSHAPE($,$,(#424));
#426=IFCSPACE('3O2KQgLpP8h96mg0vRp$e1',#5,'SALA FLIP 1','35.0 mq \X2\2014\X0\ cap. 10 pers.',$,#412,#425,'Sala Riunioni',$,.INTERNAL.,$);
#427=IFCPROPERTYSINGLEVALUE('BEMSZoneId',$,IFCLABEL('Z-P5-01'),$);
#428=IFCPROPERTYSINGLEVALUE('BEMSType',$,IFCLABEL('sala_riunioni'),$);
#429=IFCPROPERTYSINGLEVALUE('AreaMq',$,IFCREAL(35.),$);
#430=IFCPROPERTYSINGLEVALUE('CapacitaPersone',$,IFCINTEGER(10),$);
#431=IFCPROPERTYSINGLEVALUE('SVGElementId',$,IFCLABEL('space-p5-sala-flip-1'),$);
#432=IFCPROPERTYSINGLEVALUE('FloorId',$,IFCLABEL('P5'),$);
#433=IFCPROPERTYSET('2OheU$Mj90qhQVzgsoX_9v',#5,'KeyBiz_BEMS',$,(#427,#428,#429,#430,#431,#432));
#434=IFCRELDEFINESBYPROPERTIES('0BYOhyNQDFjvN4w3eEqWsU',#5,$,$,(#426),#433);
#435=IFCCARTESIANPOINT((6.2222222222222223,0.9375,0.));
#436=IFCAXIS2PLACEMENT3D(#435,$,$);
#437=IFCLOCALPLACEMENT(#32,#436);
#438=IFCCARTESIANPOINT((0.,0.));
#439=IFCCARTESIANPOINT((4.,0.));
#440=IFCCARTESIANPOINT((4.,3.2291666666666665));
#441=IFCCARTESIANPOINT((0.,3.2291666666666665));
#442=IFCCARTESIANPOINT((0.,0.));
#443=IFCPOLYLINE((#438,#439,#440,#441,#442));
#444=IFCARBITRARYCLOSEDPROFILEDEF(.AREA.,$,#443);
#445=IFCDIRECTION((0.,0.,1.));
#446=IFCCARTESIANPOINT((0.,0.,0.));
#447=IFCAXIS2PLACEMENT3D(#446,$,$);
#448=IFCEXTRUDEDAREASOLID(#444,#447,#445,3.2000000000000002);
#449=IFCSHAPEREPRESENTATION(#13,'Body','SweptSolid',(#448));
#450=IFCPRODUCTDEFINITIONSHAPE($,$,(#449));
#451=IFCSPACE('2RKuoLRrXC1Bk2FMC7$50c',#5,'AMM.','20.0 mq \X2\2014\X0\ cap. 3 pers.',$,#437,#450,'Ufficio',$,.INTERNAL.,$);
#452=IFCPROPERTYSINGLEVALUE('BEMSZoneId',$,IFCLABEL('Z-P5-02'),$);
#453=IFCPROPERTYSINGLEVALUE('BEMSType',$,IFCLABEL('ufficio'),$);
#454=IFCPROPERTYSINGLEVALUE('AreaMq',$,IFCREAL(20.),$);
#455=IFCPROPERTYSINGLEVALUE('CapacitaPersone',$,IFCINTEGER(3),$);
#456=IFCPROPERTYSINGLEVALUE('SVGElementId',$,IFCLABEL('space-p5-amm'),$);
#457=IFCPROPERTYSINGLEVALUE('FloorId',$,IFCLABEL('P5'),$);
#458=IFCPROPERTYSET('2N2R4m3XvBLfZyXHBJl6aV',#5,'KeyBiz_BEMS',$,(#452,#453,#454,#455,#456,#457));
#459=IFCRELDEFINESBYPROPERTIES('0OibNrwMT5sPW39tzGl$NU',#5,$,$,(#451),#458);
#460=IFCCARTESIANPOINT((6.2222222222222223,4.1666666666666661,0.));
#461=IFCAXIS2PLACEMENT3D(#460,$,$);
#462=IFCLOCALPLACEMENT(#32,#461);
#463=IFCCARTESIANPOINT((0.,0.));
#464=IFCCARTESIANPOINT((4.,0.));
#465=IFCCARTESIANPOINT((4.,3.125));
#466=IFCCARTESIANPOINT((0.,3.125));
#467=IFCCARTESIANPOINT((0.,0.));
#468=IFCPOLYLINE((#463,#464,#465,#466,#467));
#469=IFCARBITRARYCLOSEDPROFILEDEF(.AREA.,$,#468);
#470=IFCDIRECTION((0.,0.,1.));
#471=IFCCARTESIANPOINT((0.,0.,0.));
#472=IFCAXIS2PLACEMENT3D(#471,$,$);
#473=IFCEXTRUDEDAREASOLID(#469,#472,#470,3.2000000000000002);
#474=IFCSHAPEREPRESENTATION(#13,'Body','SweptSolid',(#473));
#475=IFCPRODUCTDEFINITIONSHAPE($,$,(#474));
#476=IFCSPACE('0cWrpNSbb5rv9CVjNgedLZ',#5,'RECEPTION','15.0 mq \X2\2014\X0\ cap. 2 pers.',$,#462,#475,'Reception',$,.INTERNAL.,$);
#477=IFCPROPERTYSINGLEVALUE('BEMSZoneId',$,IFCLABEL('Z-P5-03'),$);
#478=IFCPROPERTYSINGLEVALUE('BEMSType',$,IFCLABEL('reception'),$);
#479=IFCPROPERTYSINGLEVALUE('AreaMq',$,IFCREAL(15.),$);
#480=IFCPROPERTYSINGLEVALUE('CapacitaPersone',$,IFCINTEGER(2),$);
#481=IFCPROPERTYSINGLEVALUE('SVGElementId',$,IFCLABEL('space-p5-reception'),$);
#482=IFCPROPERTYSINGLEVALUE('FloorId',$,IFCLABEL('P5'),$);
#483=IFCPROPERTYSET('1XbwOylin5LBC7KsMiAv8t',#5,'KeyBiz_BEMS',$,(#477,#478,#479,#480,#481,#482));
#484=IFCRELDEFINESBYPROPERTIES('3tVUC_X4z0ZQGUxqo3dCqt',#5,$,$,(#476),#483);
#485=IFCCARTESIANPOINT((10.222222222222223,0.9375,0.));
#486=IFCAXIS2PLACEMENT3D(#485,$,$);
#487=IFCLOCALPLACEMENT(#32,#486);
#488=IFCCARTESIANPOINT((0.,0.));
#489=IFCCARTESIANPOINT((5.3333333333333339,0.));
#490=IFCCARTESIANPOINT((5.3333333333333339,5.1041666666666661));
#491=IFCCARTESIANPOINT((0.,5.1041666666666661));
#492=IFCCARTESIANPOINT((0.,0.));
#493=IFCPOLYLINE((#488,#489,#490,#491,#492));
#494=IFCARBITRARYCLOSEDPROFILEDEF(.AREA.,$,#493);
#495=IFCDIRECTION((0.,0.,1.));
#496=IFCCARTESIANPOINT((0.,0.,0.));
#497=IFCAXIS2PLACEMENT3D(#496,$,$);
#498=IFCEXTRUDEDAREASOLID(#494,#497,#495,3.2000000000000002);
#499=IFCSHAPEREPRESENTATION(#13,'Body','SweptSolid',(#498));
#500=IFCPRODUCTDEFINITIONSHAPE($,$,(#499));
#501=IFCSPACE('13xSQDRRb5oPIJbNgj9qKH',#5,'SALA FLIP 2','35.0 mq \X2\2014\X0\ cap. 10 pers.',$,#487,#500,'Sala Riunioni',$,.INTERNAL.,$);
#502=IFCPROPERTYSINGLEVALUE('BEMSZoneId',$,IFCLABEL('Z-P5-04'),$);
#503=IFCPROPERTYSINGLEVALUE('BEMSType',$,IFCLABEL('sala_riunioni'),$);
#504=IFCPROPERTYSINGLEVALUE('AreaMq',$,IFCREAL(35.),$);
#505=IFCPROPERTYSINGLEVALUE('CapacitaPersone',$,IFCINTEGER(10),$);
#506=IFCPROPERTYSINGLEVALUE('SVGElementId',$,IFCLABEL('space-p5-sala-flip-2'),$);
#507=IFCPROPERTYSINGLEVALUE('FloorId',$,IFCLABEL('P5'),$);
#508=IFCPROPERTYSET('3PGwb25JDCWQG9shOG0kcG',#5,'KeyBiz_BEMS',$,(#502,#503,#504,#505,#506,#507));
#509=IFCRELDEFINESBYPROPERTIES('13_AcCIuv0NAXZk_DtXzx7',#5,$,$,(#501),#508);
#510=IFCCARTESIANPOINT((15.555555555555555,0.9375,0.));
#511=IFCAXIS2PLACEMENT3D(#510,$,$);
#512=IFCLOCALPLACEMENT(#32,#511);
#513=IFCCARTESIANPOINT((0.,0.));
#514=IFCCARTESIANPOINT((4.4444444444444446,0.));
#515=IFCCARTESIANPOINT((4.4444444444444446,5.1041666666666661));
#516=IFCCARTESIANPOINT((0.,5.1041666666666661));
#517=IFCCARTESIANPOINT((0.,0.));
#518=IFCPOLYLINE((#513,#514,#515,#516,#517));
#519=IFCARBITRARYCLOSEDPROFILEDEF(.AREA.,$,#518);
#520=IFCDIRECTION((0.,0.,1.));
#521=IFCCARTESIANPOINT((0.,0.,0.));
#522=IFCAXIS2PLACEMENT3D(#521,$,$);
#523=IFCEXTRUDEDAREASOLID(#519,#522,#520,3.2000000000000002);
#524=IFCSHAPEREPRESENTATION(#13,'Body','SweptSolid',(#523));
#525=IFCPRODUCTDEFINITIONSHAPE($,$,(#524));
#526=IFCSPACE('2AamIDY3HC99odMd0GKSCp',#5,'SALES','25.0 mq \X2\2014\X0\ cap. 4 pers.',$,#512,#525,'Ufficio',$,.INTERNAL.,$);
#527=IFCPROPERTYSINGLEVALUE('BEMSZoneId',$,IFCLABEL('Z-P5-05'),$);
#528=IFCPROPERTYSINGLEVALUE('BEMSType',$,IFCLABEL('ufficio'),$);
#529=IFCPROPERTYSINGLEVALUE('AreaMq',$,IFCREAL(25.),$);
#530=IFCPROPERTYSINGLEVALUE('CapacitaPersone',$,IFCINTEGER(4),$);
#531=IFCPROPERTYSINGLEVALUE('SVGElementId',$,IFCLABEL('space-p5-sales'),$);
#532=IFCPROPERTYSINGLEVALUE('FloorId',$,IFCLABEL('P5'),$);
#533=IFCPROPERTYSET('1lNEZq2XH8C9P9oso1z7a5',#5,'KeyBiz_BEMS',$,(#527,#528,#529,#530,#531,#532));
#534=IFCRELDEFINESBYPROPERTIES('0YkCkL4XL6beJBjvbXBFoW',#5,$,$,(#526),#533);
#535=IFCCARTESIANPOINT((20.,0.9375,0.));
#536=IFCAXIS2PLACEMENT3D(#535,$,$);
#537=IFCLOCALPLACEMENT(#32,#536);
#538=IFCCARTESIANPOINT((0.,0.));
#539=IFCCARTESIANPOINT((6.666666666666667,0.));
#540=IFCCARTESIANPOINT((6.666666666666667,8.0208333333333321));
#541=IFCCARTESIANPOINT((0.,8.0208333333333321));
#542=IFCCARTESIANPOINT((0.,0.));
#543=IFCPOLYLINE((#538,#539,#540,#541,#542));
#544=IFCARBITRARYCLOSEDPROFILEDEF(.AREA.,$,#543);
#545=IFCDIRECTION((0.,0.,1.));
#546=IFCCARTESIANPOINT((0.,0.,0.));
#547=IFCAXIS2PLACEMENT3D(#546,$,$);
#548=IFCEXTRUDEDAREASOLID(#544,#547,#545,3.2000000000000002);
#549=IFCSHAPEREPRESENTATION(#13,'Body','SweptSolid',(#548));
#550=IFCPRODUCTDEFINITIONSHAPE($,$,(#549));
#551=IFCSPACE('19eXN6M3XAZPtqW3tJHyEq',#5,'CEO + CFO','50.0 mq \X2\2014\X0\ cap. 2 pers.',$,#537,#550,'Ufficio Direzionale',$,.INTERNAL.,$);
#552=IFCPROPERTYSINGLEVALUE('BEMSZoneId',$,IFCLABEL('Z-P5-06'),$);
#553=IFCPROPERTYSINGLEVALUE('BEMSType',$,IFCLABEL('ufficio_direzionale'),$);
#554=IFCPROPERTYSINGLEVALUE('AreaMq',$,IFCREAL(50.),$);
#555=IFCPROPERTYSINGLEVALUE('CapacitaPersone',$,IFCINTEGER(2),$);
#556=IFCPROPERTYSINGLEVALUE('SVGElementId',$,IFCLABEL('space-p5-ceo-cfo'),$);
#557=IFCPROPERTYSINGLEVALUE('FloorId',$,IFCLABEL('P5'),$);
#558=IFCPROPERTYSET('1VsvnXk99FUhOV4TFBpzJ8',#5,'KeyBiz_BEMS',$,(#552,#553,#554,#555,#556,#557));
#559=IFCRELDEFINESBYPROPERTIES('1DnXQhhG94LO4Z7MY$pxod',#5,$,$,(#551),#558);
#560=IFCCARTESIANPOINT((0.88888888888888895,6.0416666666666661,0.));
#561=IFCAXIS2PLACEMENT3D(#560,$,$);
#562=IFCLOCALPLACEMENT(#32,#561);
#563=IFCCARTESIANPOINT((0.,0.));
#564=IFCCARTESIANPOINT((5.3333333333333339,0.));
#565=IFCCARTESIANPOINT((5.3333333333333339,2.708333333333333));
#566=IFCCARTESIANPOINT((0.,2.708333333333333));
#567=IFCCARTESIANPOINT((0.,0.));
#568=IFCPOLYLINE((#563,#564,#565,#566,#567));
#569=IFCARBITRARYCLOSEDPROFILEDEF(.AREA.,$,#568);
#570=IFCDIRECTION((0.,0.,1.));
#571=IFCCARTESIANPOINT((0.,0.,0.));
#572=IFCAXIS2PLACEMENT3D(#571,$,$);
#573=IFCEXTRUDEDAREASOLID(#569,#572,#570,3.2000000000000002);
#574=IFCSHAPEREPRESENTATION(#13,'Body','SweptSolid',(#573));
#575=IFCPRODUCTDEFINITIONSHAPE($,$,(#574));
#576=IFCSPACE('0_cYsfpE92gwBs85BPnfyV',#5,'ANTICAMERA','10.0 mq \X2\2014\X0\ cap. 0 pers.',$,#562,#575,'Anticamera',$,.INTERNAL.,$);
#577=IFCPROPERTYSINGLEVALUE('BEMSZoneId',$,IFCLABEL('Z-P5-07'),$);
#578=IFCPROPERTYSINGLEVALUE('BEMSType',$,IFCLABEL('anticamera'),$);
#579=IFCPROPERTYSINGLEVALUE('AreaMq',$,IFCREAL(10.),$);
#580=IFCPROPERTYSINGLEVALUE('CapacitaPersone',$,IFCINTEGER(0),$);
#581=IFCPROPERTYSINGLEVALUE('SVGElementId',$,IFCLABEL('space-p5-anticamera'),$);
#582=IFCPROPERTYSINGLEVALUE('FloorId',$,IFCLABEL('P5'),$);
#583=IFCPROPERTYSET('3WoAgIdI5FrAx4205iFRDi',#5,'KeyBiz_BEMS',$,(#577,#578,#579,#580,#581,#582));
#584=IFCRELDEFINESBYPROPERTIES('31FJgUXoT8P8U4TgBxWfs0',#5,$,$,(#576),#583);
#585=IFCCARTESIANPOINT((0.88888888888888895,8.75,0.));
#586=IFCAXIS2PLACEMENT3D(#585,$,$);
#587=IFCLOCALPLACEMENT(#32,#586);
#588=IFCCARTESIANPOINT((0.,0.));
#589=IFCCARTESIANPOINT((5.3333333333333339,0.));
#590=IFCCARTESIANPOINT((5.3333333333333339,5.4166666666666661));
#591=IFCCARTESIANPOINT((0.,5.4166666666666661));
#592=IFCCARTESIANPOINT((0.,0.));
#593=IFCPOLYLINE((#588,#589,#590,#591,#592));
#594=IFCARBITRARYCLOSEDPROFILEDEF(.AREA.,$,#593);
#595=IFCDIRECTION((0.,0.,1.));
#596=IFCCARTESIANPOINT((0.,0.,0.));
#597=IFCAXIS2PLACEMENT3D(#596,$,$);
#598=IFCEXTRUDEDAREASOLID(#594,#597,#595,3.2000000000000002);
#599=IFCSHAPEREPRESENTATION(#13,'Body','SweptSolid',(#598));
#600=IFCPRODUCTDEFINITIONSHAPE($,$,(#599));
#601=IFCSPACE('1XviwWdv9DGAKXLaDDNkTR',#5,'CTO','25.0 mq \X2\2014\X0\ cap. 1 pers.',$,#587,#600,'Ufficio Direzionale',$,.INTERNAL.,$);
#602=IFCPROPERTYSINGLEVALUE('BEMSZoneId',$,IFCLABEL('Z-P5-08'),$);
#603=IFCPROPERTYSINGLEVALUE('BEMSType',$,IFCLABEL('ufficio_direzionale'),$);
#604=IFCPROPERTYSINGLEVALUE('AreaMq',$,IFCREAL(25.),$);
#605=IFCPROPERTYSINGLEVALUE('CapacitaPersone',$,IFCINTEGER(1),$);
#606=IFCPROPERTYSINGLEVALUE('SVGElementId',$,IFCLABEL('space-p5-cto'),$);
#607=IFCPROPERTYSINGLEVALUE('FloorId',$,IFCLABEL('P5'),$);
#608=IFCPROPERTYSET('1Pfk895NT4BR3eoXxr9OGe',#5,'KeyBiz_BEMS',$,(#602,#603,#604,#605,#606,#607));
#609=IFCRELDEFINESBYPROPERTIES('2OiOPKQ3T7MxKQ16v7C$Tm',#5,$,$,(#601),#608);
#610=IFCCARTESIANPOINT((8.8888888888888893,7.2916666666666661,0.));
#611=IFCAXIS2PLACEMENT3D(#610,$,$);
#612=IFCLOCALPLACEMENT(#32,#611);
#613=IFCCARTESIANPOINT((0.,0.));
#614=IFCCARTESIANPOINT((2.2222222222222223,0.));
#615=IFCCARTESIANPOINT((2.2222222222222223,6.875));
#616=IFCCARTESIANPOINT((0.,6.875));
#617=IFCCARTESIANPOINT((0.,0.));
#618=IFCPOLYLINE((#613,#614,#615,#616,#617));
#619=IFCARBITRARYCLOSEDPROFILEDEF(.AREA.,$,#618);
#620=IFCDIRECTION((0.,0.,1.));
#621=IFCCARTESIANPOINT((0.,0.,0.));
#622=IFCAXIS2PLACEMENT3D(#621,$,$);
#623=IFCEXTRUDEDAREASOLID(#619,#622,#620,3.2000000000000002);
#624=IFCSHAPEREPRESENTATION(#13,'Body','SweptSolid',(#623));
#625=IFCPRODUCTDEFINITIONSHAPE($,$,(#624));
#626=IFCSPACE('0ktBMufcvERee8WD6B1ik6',#5,'CED','15.0 mq \X2\2014\X0\ cap. 0 pers.',$,#612,#625,'Server Room',$,.INTERNAL.,$);
#627=IFCPROPERTYSINGLEVALUE('BEMSZoneId',$,IFCLABEL('Z-P5-09'),$);
#628=IFCPROPERTYSINGLEVALUE('BEMSType',$,IFCLABEL('server_room'),$);
#629=IFCPROPERTYSINGLEVALUE('AreaMq',$,IFCREAL(15.),$);
#630=IFCPROPERTYSINGLEVALUE('CapacitaPersone',$,IFCINTEGER(0),$);
#631=IFCPROPERTYSINGLEVALUE('SVGElementId',$,IFCLABEL('space-p5-ced'),$);
#632=IFCPROPERTYSINGLEVALUE('FloorId',$,IFCLABEL('P5'),$);
#633=IFCPROPERTYSET('3E3m$xZzDE_QMT5aBWuaZU',#5,'KeyBiz_BEMS',$,(#627,#628,#629,#630,#631,#632));
#634=IFCRELDEFINESBYPROPERTIES('0abwyKOSb2Q9rWdZg7KPXL',#5,$,$,(#626),#633);
#635=IFCCARTESIANPOINT((11.111111111111111,7.2916666666666661,0.));
#636=IFCAXIS2PLACEMENT3D(#635,$,$);
#637=IFCLOCALPLACEMENT(#32,#636);
#638=IFCCARTESIANPOINT((0.,0.));
#639=IFCCARTESIANPOINT((2.,0.));
#640=IFCCARTESIANPOINT((2.,6.875));
#641=IFCCARTESIANPOINT((0.,6.875));
#642=IFCCARTESIANPOINT((0.,0.));
#643=IFCPOLYLINE((#638,#639,#640,#641,#642));
#644=IFCARBITRARYCLOSEDPROFILEDEF(.AREA.,$,#643);
#645=IFCDIRECTION((0.,0.,1.));
#646=IFCCARTESIANPOINT((0.,0.,0.));
#647=IFCAXIS2PLACEMENT3D(#646,$,$);
#648=IFCEXTRUDEDAREASOLID(#644,#647,#645,3.2000000000000002);
#649=IFCSHAPEREPRESENTATION(#13,'Body','SweptSolid',(#648));
#650=IFCPRODUCTDEFINITIONSHAPE($,$,(#649));
#651=IFCSPACE('05KEvDiLbEjvw1_wijpNJI',#5,'CORRIDOIO','12.0 mq \X2\2014\X0\ cap. 0 pers.',$,#637,#650,'Corridoio',$,.INTERNAL.,$);
#652=IFCPROPERTYSINGLEVALUE('BEMSZoneId',$,IFCLABEL('Z-P5-10'),$);
#653=IFCPROPERTYSINGLEVALUE('BEMSType',$,IFCLABEL('corridoio'),$);
#654=IFCPROPERTYSINGLEVALUE('AreaMq',$,IFCREAL(12.),$);
#655=IFCPROPERTYSINGLEVALUE('CapacitaPersone',$,IFCINTEGER(0),$);
#656=IFCPROPERTYSINGLEVALUE('SVGElementId',$,IFCLABEL('space-p5-corridoio'),$);
#657=IFCPROPERTYSINGLEVALUE('FloorId',$,IFCLABEL('P5'),$);
#658=IFCPROPERTYSET('0GywgG4258iRE7cU5_mJ5m',#5,'KeyBiz_BEMS',$,(#652,#653,#654,#655,#656,#657));
#659=IFCRELDEFINESBYPROPERTIES('0J1JoD0dP8Hwd5e1YloXLm',#5,$,$,(#651),#658);
#660=IFCCARTESIANPOINT((0.88888888888888895,14.166666666666666,0.));
#661=IFCAXIS2PLACEMENT3D(#660,$,$);
#662=IFCLOCALPLACEMENT(#32,#661);
#663=IFCCARTESIANPOINT((0.,0.));
#664=IFCCARTESIANPOINT((10.222222222222223,0.));
#665=IFCCARTESIANPOINT((10.222222222222223,10.));
#666=IFCCARTESIANPOINT((0.,10.));
#667=IFCCARTESIANPOINT((0.,0.));
#668=IFCPOLYLINE((#663,#664,#665,#666,#667));
#669=IFCARBITRARYCLOSEDPROFILEDEF(.AREA.,$,#668);
#670=IFCDIRECTION((0.,0.,1.));
#671=IFCCARTESIANPOINT((0.,0.,0.));
#672=IFCAXIS2PLACEMENT3D(#671,$,$);
#673=IFCEXTRUDEDAREASOLID(#669,#672,#670,3.2000000000000002);
#674=IFCSHAPEREPRESENTATION(#13,'Body','SweptSolid',(#673));
#675=IFCPRODUCTDEFINITIONSHAPE($,$,(#674));
#676=IFCSPACE('1MEBXq05r8Ohu$GTgsZFvV',#5,'OPEN SPACE','100.0 mq \X2\2014\X0\ cap. 30 pers.',$,#662,#675,'Open Space',$,.INTERNAL.,$);
#677=IFCPROPERTYSINGLEVALUE('BEMSZoneId',$,IFCLABEL('Z-P5-11'),$);
#678=IFCPROPERTYSINGLEVALUE('BEMSType',$,IFCLABEL('open_space'),$);
#679=IFCPROPERTYSINGLEVALUE('AreaMq',$,IFCREAL(100.),$);
#680=IFCPROPERTYSINGLEVALUE('CapacitaPersone',$,IFCINTEGER(30),$);
#681=IFCPROPERTYSINGLEVALUE('SVGElementId',$,IFCLABEL('space-p5-open-space'),$);
#682=IFCPROPERTYSINGLEVALUE('FloorId',$,IFCLABEL('P5'),$);
#683=IFCPROPERTYSET('17dsLI8HLFBvLwlmXKWbTn',#5,'KeyBiz_BEMS',$,(#677,#678,#679,#680,#681,#682));
#684=IFCRELDEFINESBYPROPERTIES('0Qktpx1aX53uCHx5odKrct',#5,$,$,(#676),#683);
#685=IFCCARTESIANPOINT((11.111111111111111,14.166666666666666,0.));
#686=IFCAXIS2PLACEMENT3D(#685,$,$);
#687=IFCLOCALPLACEMENT(#32,#686);
#688=IFCCARTESIANPOINT((0.,0.));
#689=IFCCARTESIANPOINT((19.111111111111111,0.));
#690=IFCCARTESIANPOINT((19.111111111111111,13.125));
#691=IFCCARTESIANPOINT((0.,13.125));
#692=IFCCARTESIANPOINT((0.,0.));
#693=IFCPOLYLINE((#688,#689,#690,#691,#692));
#694=IFCARBITRARYCLOSEDPROFILEDEF(.AREA.,$,#693);
#695=IFCDIRECTION((0.,0.,1.));
#696=IFCCARTESIANPOINT((0.,0.,0.));
#697=IFCAXIS2PLACEMENT3D(#696,$,$);
#698=IFCEXTRUDEDAREASOLID(#694,#697,#695,3.2000000000000002);
#699=IFCSHAPEREPRESENTATION(#13,'Body','SweptSolid',(#698));
#700=IFCPRODUCTDEFINITIONSHAPE($,$,(#699));
#701=IFCSPACE('398VhATYzE_8IcGJkZ8cY1',#5,'TERRAZZO','200.0 mq \X2\2014\X0\ cap. 0 pers.',$,#687,#700,'Terrazzo',$,.EXTERNAL.,$);
#702=IFCPROPERTYSINGLEVALUE('BEMSZoneId',$,IFCLABEL('Z-P5-12'),$);
#703=IFCPROPERTYSINGLEVALUE('BEMSType',$,IFCLABEL('terrazzo'),$);
#704=IFCPROPERTYSINGLEVALUE('AreaMq',$,IFCREAL(200.),$);
#705=IFCPROPERTYSINGLEVALUE('CapacitaPersone',$,IFCINTEGER(0),$);
#706=IFCPROPERTYSINGLEVALUE('SVGElementId',$,IFCLABEL('space-p5-terrazzo'),$);
#707=IFCPROPERTYSINGLEVALUE('FloorId',$,IFCLABEL('P5'),$);
#708=IFCPROPERTYSET('3I8AA3vF95AASRc7lRTPl_',#5,'KeyBiz_BEMS',$,(#702,#703,#704,#705,#706,#707));
#709=IFCRELDEFINESBYPROPERTIES('0fVe2DI2XDdeU3JBWbzS4i',#5,$,$,(#701),#708);
#710=IFCRELCONTAINEDINSPATIALSTRUCTURE('09LoIOHI9CrfR20TQUf8Co',#5,$,$,(#51,#76,#101,#126,#151,#176,#201,#226,#251,#276,#301,#326,#351,#376,#401),#29);
#711=IFCRELCONTAINEDINSPATIALSTRUCTURE('3lB9AfQyH6tPo9tKMMU8$i',#5,$,$,(#426,#451,#476,#501,#526,#551,#576,#601,#626,#651,#676,#701),#33);
ENDSEC;
END-ISO-10303-21;
